<?xml version="1.0" encoding="UTF-8" standalone="no"?>
<svg
	xmlns="http://www.w3.org/2000/svg"
	id="fa-concrete5"
	version="1.0"
	x="0px"
	y="0px"
	width="98.748222"
	height="114.57185"
	viewBox="0 0 98.748222 114.57185"
	enable-background="new 0 0 612 792"
>
	<path
		style="fill:#000000;fill-opacity:1;stroke:#000000;stroke-opacity:1"
		id="concrete5-path"
		d="
			m 98.108586,74.446362
			c -11.162,-13.299 -28.337,14.747 -37.589,20.82 -6.389,4.195 -16.082,4.525 -22.893,0.521 -9.319,-5.478 -6.467,-18.58 3.373,-21.832 8.751,-2.894 24.049,6.324 29.605,-2.899 6.842,-11.362 -16.543,-14.027 -23.463,-13.751 -12.471,0.491 -24.484,4.532 -31.885,13.969 -7.9710001,10.164 -6.1480001,22.451 2.638,31.671998 8.952,8.657 21.913,11.994 34.814,10.936 3.26,-0.27 8.859,-1.663 13.146,-4.008 8.5,-4.65 34.511004,-32.739998 32.254,-35.427998
			z
			m -81.628,-9.952
			c 4.323,0.861 -4.049,-23.286 -4.598,-26.61 -0.662,-4.02 -2.1460001,-9.688 -6.1330001,-10.277 -4.631,-0.675 -5.89699999,4.591 -4.95499999,9.211 0.97599999,4.808 11.62600009,26.865 15.68600009,27.676
			z
			m 35.767,-12.47
			c 6.696,0.951 6.238,-31.188 6.243,-35.555 0.004,-3.926 1.537,-14.8090003 -3.764,-15.83200034 -7.277,-1.411 -8,8.17800004 -8.157,13.33600034 0.301,5.153 -1.327,37.063 5.678,38.051
			z
			m 15.948,5.141
			c 7.316,3.057 12.915,-29.41 13.721,-33.574 0.818,-4.243 0.953,-13.25 -6.32,-10.396 -3.648,1.429 -4.316,7.346 -4.878,10.609 -0.912,4.152 -8.163,31.003 -2.523,33.361
			z
			m -35.185,-2.729
			c 8.246,0.613 0.477,-32.039 -0.176,-36.393 -0.664,-4.438 -3.65,-13.3320003 -9.811,-8.1540003 -3.088,2.5960003 -1.695,8.6310003 -1.118,12.0180003 0.544,4.381 4.747,32.057 11.105,32.529
			z
		"
	/>
</svg>
